<svg width="39" height="38" viewBox="0 0 39 38" fill="none" xmlns="http://www.w3.org/2000/svg">
<path d="M19.5 3.39062C16.2459 3.39063 13.0648 4.3061 10.3591 6.02128C7.65344 7.73646 5.5446 10.1743 4.2993 13.0266C3.054 15.8788 2.72818 19.0173 3.36302 22.0452C3.99787 25.0732 5.56488 27.8545 7.86589 30.0375C10.1669 32.2205 13.0986 33.7072 16.2902 34.3094C19.4818 34.9117 22.7899 34.6026 25.7963 33.4212C28.8028 32.2397 31.3724 30.2391 33.1803 27.6721C34.9882 25.1052 35.9531 22.0872 35.9531 19C35.9483 14.8615 34.2133 10.8939 31.1288 7.96758C28.0443 5.04124 23.8622 3.39522 19.5 3.39062ZM12.122 28.9105C12.9707 27.8096 14.0811 26.9141 15.363 26.2969C16.645 25.6796 18.0624 25.3578 19.5 25.3578C20.9376 25.3578 22.355 25.6796 23.637 26.2969C24.9189 26.9141 26.0293 27.8096 26.878 28.9105C24.7217 30.3613 22.1435 31.1406 19.5 31.1406C16.8565 31.1406 14.2783 30.3613 12.122 28.9105ZM15.2344 17.8438C15.2344 17.0434 15.4846 16.2609 15.9533 15.5954C16.422 14.9299 17.0882 14.4112 17.8676 14.1049C18.6471 13.7986 19.5047 13.7185 20.3322 13.8746C21.1596 14.0308 21.9197 14.4162 22.5163 14.9822C23.1128 15.5481 23.5191 16.2692 23.6837 17.0542C23.8483 17.8393 23.7638 18.653 23.4409 19.3924C23.1181 20.1319 22.5713 20.7639 21.8699 21.2086C21.1684 21.6533 20.3437 21.8906 19.5 21.8906C18.3687 21.8906 17.2837 21.4643 16.4838 20.7053C15.6838 19.9464 15.2344 18.917 15.2344 17.8438ZM29.5547 26.507C28.3698 25.0772 26.8595 23.92 25.1367 23.122C26.2347 22.0672 26.9793 20.7279 27.2769 19.2726C27.5745 17.8174 27.4118 16.3111 26.8093 14.9433C26.2068 13.5755 25.1914 12.4073 23.8908 11.5856C22.5902 10.764 21.0626 10.3256 19.5 10.3256C17.9374 10.3256 16.4098 10.764 15.1092 11.5856C13.8086 12.4073 12.7932 13.5755 12.1907 14.9433C11.5882 16.3111 11.4255 17.8174 11.7231 19.2726C12.0208 20.7279 12.7654 22.0672 13.8633 23.122C12.1405 23.92 10.6302 25.0772 9.44532 26.507C7.95699 24.717 7.02998 22.5657 6.77039 20.2992C6.51081 18.0327 6.92916 15.7426 7.97753 13.6912C9.02591 11.6397 10.662 9.90982 12.6984 8.69942C14.7348 7.48903 17.0893 6.84709 19.4924 6.84709C21.8955 6.84709 24.25 7.48903 26.2864 8.69942C28.3228 9.90982 29.9589 11.6397 31.0072 13.6912C32.0556 15.7426 32.474 18.0327 32.2144 20.2992C31.9548 22.5657 31.0278 24.717 29.5395 26.507H29.5547Z" fill="black"/>
</svg>
