<svg width="66" height="49" viewBox="0 0 66 49" fill="none" xmlns="http://www.w3.org/2000/svg">
<g filter="url(#filter0_dd_625_1235)">
<rect x="9.84283" y="5.20215" width="46.6143" height="30.0304" rx="5.37857" fill="white"/>
<rect x="9.73078" y="5.09009" width="46.8384" height="30.2545" rx="5.49062" stroke="#D6DCE5" stroke-width="0.224107"/>
<path d="M24.9198 16.2839C25.2308 15.8949 25.4419 15.3726 25.3862 14.8389C24.931 14.8615 24.3754 15.1392 24.0538 15.5285C23.765 15.8619 23.5094 16.406 23.576 16.9174C24.0871 16.9617 24.5976 16.6619 24.9198 16.2839Z" fill="#000008"/>
<path d="M25.3804 17.0172C24.6383 16.973 24.0073 17.4384 23.6528 17.4384C23.2982 17.4384 22.7555 17.0395 22.1685 17.0502C21.4045 17.0615 20.6956 17.4935 20.3079 18.1805C19.5104 19.555 20.0974 21.5938 20.8729 22.7132C21.2495 23.267 21.7033 23.8768 22.3014 23.8549C22.8664 23.8327 23.0879 23.489 23.7747 23.489C24.461 23.489 24.6605 23.8549 25.2586 23.8438C25.8789 23.8327 26.2666 23.2897 26.6432 22.7353C27.0752 22.104 27.2521 21.4944 27.2632 21.461C27.2521 21.4499 26.0672 20.9953 26.0562 19.6323C26.045 18.491 26.9865 17.9482 27.0308 17.9145C26.4991 17.1282 25.6684 17.0395 25.3804 17.0172Z" fill="#000008"/>
<path d="M31.8425 15.4727C33.4555 15.4727 34.5788 16.5846 34.5788 18.2034C34.5788 19.828 33.4324 20.9457 31.802 20.9457H30.0161V23.7859H28.7257V15.4727L31.8425 15.4727ZM30.0161 19.8626H31.4967C32.6201 19.8626 33.2595 19.2577 33.2595 18.2092C33.2595 17.1607 32.6201 16.5616 31.5024 16.5616H30.0161V19.8626Z" fill="#000008"/>
<path d="M34.9159 22.0633C34.9159 21.0032 35.7282 20.3523 37.1686 20.2716L38.8276 20.1737V19.7071C38.8276 19.033 38.3725 18.6298 37.6122 18.6298C36.8919 18.6298 36.4425 18.9754 36.3331 19.517H35.1579C35.227 18.4223 36.1602 17.6158 37.6582 17.6158C39.1272 17.6158 40.0662 18.3935 40.0662 19.6091V23.7859H38.8736V22.7892H38.845C38.4936 23.4633 37.7273 23.8895 36.9323 23.8895C35.7455 23.8895 34.9159 23.1521 34.9159 22.0633ZM38.8276 21.5161V21.0379L37.3355 21.13C36.5923 21.1819 36.1718 21.5103 36.1718 22.0288C36.1718 22.5587 36.6096 22.9044 37.2779 22.9044C38.1478 22.9044 38.8276 22.3053 38.8276 21.5161Z" fill="#000008"/>
<path d="M41.1921 26.0154V25.0072C41.2841 25.0302 41.4915 25.0302 41.5952 25.0302C42.1713 25.0302 42.4824 24.7883 42.6725 24.1661C42.6725 24.1546 42.782 23.7974 42.782 23.7916L40.5929 17.7252H41.9408L43.4734 22.6567H43.4963L45.0289 17.7252H46.3424L44.0724 24.1027C43.5541 25.5718 42.9549 26.0442 41.699 26.0442C41.5952 26.0442 41.2841 26.0326 41.1921 26.0154Z" fill="#000008"/>
</g>
<defs>
<filter id="filter0_dd_625_1235" x="0.654428" y="0.495884" width="64.9911" height="48.4071" filterUnits="userSpaceOnUse" color-interpolation-filters="sRGB">
<feFlood flood-opacity="0" result="BackgroundImageFix"/>
<feColorMatrix in="SourceAlpha" type="matrix" values="0 0 0 0 0 0 0 0 0 0 0 0 0 0 0 0 0 0 127 0" result="hardAlpha"/>
<feOffset dy="0.448214"/>
<feGaussianBlur stdDeviation="2.24107"/>
<feColorMatrix type="matrix" values="0 0 0 0 0.717647 0 0 0 0 0.717647 0 0 0 0 0.717647 0 0 0 0.08 0"/>
<feBlend mode="normal" in2="BackgroundImageFix" result="effect1_dropShadow_625_1235"/>
<feColorMatrix in="SourceAlpha" type="matrix" values="0 0 0 0 0 0 0 0 0 0 0 0 0 0 0 0 0 0 127 0" result="hardAlpha"/>
<feOffset dy="4.48214"/>
<feGaussianBlur stdDeviation="4.48214"/>
<feColorMatrix type="matrix" values="0 0 0 0 0.717647 0 0 0 0 0.717647 0 0 0 0 0.717647 0 0 0 0.08 0"/>
<feBlend mode="normal" in2="effect1_dropShadow_625_1235" result="effect2_dropShadow_625_1235"/>
<feBlend mode="normal" in="SourceGraphic" in2="effect2_dropShadow_625_1235" result="shape"/>
</filter>
</defs>
</svg>
