<svg width="40" height="38" viewBox="0 0 40 38" fill="none" xmlns="http://www.w3.org/2000/svg">
<path d="M15.625 31.7188C15.625 32.2905 15.4417 32.8493 15.0983 33.3247C14.755 33.8001 14.2669 34.1706 13.6959 34.3893C13.1249 34.6081 12.4965 34.6654 11.8903 34.5538C11.2842 34.4423 10.7273 34.167 10.2903 33.7627C9.85325 33.3585 9.55562 32.8434 9.43505 32.2827C9.31447 31.722 9.37635 31.1407 9.61287 30.6126C9.8494 30.0844 10.2499 29.6329 10.7638 29.3153C11.2777 28.9977 11.8819 28.8281 12.5 28.8281C13.3288 28.8281 14.1237 29.1327 14.7097 29.6748C15.2958 30.2169 15.625 30.9521 15.625 31.7188ZM28.75 28.8281C28.1319 28.8281 27.5277 28.9977 27.0138 29.3153C26.4999 29.6329 26.0994 30.0844 25.8629 30.6126C25.6264 31.1407 25.5645 31.722 25.685 32.2827C25.8056 32.8434 26.1033 33.3585 26.5403 33.7627C26.9773 34.167 27.5341 34.4423 28.1403 34.5538C28.7465 34.6654 29.3749 34.6081 29.9459 34.3893C30.5169 34.1706 31.005 33.8001 31.3483 33.3247C31.6917 32.8493 31.875 32.2905 31.875 31.7188C31.875 30.9521 31.5458 30.2169 30.9597 29.6748C30.3737 29.1327 29.5788 28.8281 28.75 28.8281ZM36.7922 11.4164L32.5281 24.2364C32.2559 25.0654 31.7019 25.7912 30.9484 26.3059C30.1949 26.8207 29.282 27.097 28.3453 27.0938H12.9578C12.0077 27.0909 11.0841 26.8033 10.3255 26.2741C9.56691 25.7449 9.01413 25.0026 8.75 24.1583L3.40781 6.85938H1.875C1.37772 6.85938 0.900805 6.67665 0.549175 6.35139C0.197544 6.02613 0 5.58498 0 5.125C0 4.66502 0.197544 4.22387 0.549175 3.89861C0.900805 3.57335 1.37772 3.39063 1.875 3.39062H3.87812C4.55679 3.39256 5.21647 3.598 5.75822 3.97612C6.29996 4.35423 6.69456 4.88464 6.88281 5.48777L8.02187 9.17188H35C35.2934 9.17185 35.5828 9.23554 35.8448 9.35781C36.1067 9.48008 36.334 9.65752 36.5084 9.87586C36.6827 10.0942 36.7992 10.3473 36.8485 10.6149C36.8978 10.8825 36.8785 11.157 36.7922 11.4164ZM32.4609 12.6406H9.09219L12.3562 23.2059C12.3936 23.3267 12.4726 23.433 12.5811 23.5087C12.6897 23.5843 12.8219 23.6251 12.9578 23.625H28.3453C28.4791 23.6252 28.6094 23.5858 28.7171 23.5124C28.8249 23.4391 28.9043 23.3357 28.9437 23.2174L32.4609 12.6406Z" fill="#1E832D"/>
</svg>
