<svg width="347" height="48" viewBox="0 0 347 48" fill="none" xmlns="http://www.w3.org/2000/svg">
<rect width="347" height="48" rx="8" fill="#1E832D"/>
<path d="M35.108 22.2898H32.983C32.9223 21.9413 32.8106 21.6326 32.6477 21.3636C32.4848 21.0909 32.2822 20.8598 32.0398 20.6705C31.7973 20.4811 31.5208 20.339 31.2102 20.2443C30.9034 20.1458 30.572 20.0966 30.2159 20.0966C29.5833 20.0966 29.0227 20.2557 28.5341 20.5739C28.0455 20.8883 27.6629 21.3504 27.3864 21.9602C27.1098 22.5663 26.9716 23.3068 26.9716 24.1818C26.9716 25.072 27.1098 25.822 27.3864 26.4318C27.6667 27.0379 28.0492 27.4962 28.5341 27.8068C29.0227 28.1136 29.5814 28.267 30.2102 28.267C30.5587 28.267 30.8845 28.2216 31.1875 28.1307C31.4943 28.036 31.7689 27.8977 32.0114 27.7159C32.2576 27.5341 32.464 27.3106 32.6307 27.0455C32.8011 26.7803 32.9186 26.4773 32.983 26.1364L35.108 26.1477C35.0284 26.7008 34.8561 27.2197 34.5909 27.7045C34.3295 28.1894 33.9867 28.6174 33.5625 28.9886C33.1383 29.3561 32.642 29.6439 32.0739 29.8523C31.5057 30.0568 30.875 30.1591 30.1818 30.1591C29.1591 30.1591 28.2462 29.9223 27.4432 29.4489C26.6402 28.9754 26.0076 28.2917 25.5455 27.3977C25.0833 26.5038 24.8523 25.4318 24.8523 24.1818C24.8523 22.928 25.0852 21.8561 25.5511 20.9659C26.017 20.072 26.6515 19.3883 27.4545 18.9148C28.2576 18.4413 29.1667 18.2045 30.1818 18.2045C30.8295 18.2045 31.4318 18.2955 31.9886 18.4773C32.5455 18.6591 33.0417 18.9261 33.4773 19.2784C33.9129 19.6269 34.2708 20.0549 34.5511 20.5625C34.8352 21.0663 35.0208 21.642 35.108 22.2898ZM40.7543 30.1705C39.902 30.1705 39.1634 29.983 38.5384 29.608C37.9134 29.233 37.4285 28.7083 37.0838 28.0341C36.7429 27.3598 36.5724 26.572 36.5724 25.6705C36.5724 24.7689 36.7429 23.9792 37.0838 23.3011C37.4285 22.6231 37.9134 22.0966 38.5384 21.7216C39.1634 21.3466 39.902 21.1591 40.7543 21.1591C41.6065 21.1591 42.3452 21.3466 42.9702 21.7216C43.5952 22.0966 44.0781 22.6231 44.419 23.3011C44.7637 23.9792 44.9361 24.7689 44.9361 25.6705C44.9361 26.572 44.7637 27.3598 44.419 28.0341C44.0781 28.7083 43.5952 29.233 42.9702 29.608C42.3452 29.983 41.6065 30.1705 40.7543 30.1705ZM40.7656 28.5227C41.2277 28.5227 41.6141 28.3958 41.9247 28.142C42.2353 27.8845 42.4664 27.5398 42.6179 27.108C42.7732 26.6761 42.8509 26.1951 42.8509 25.6648C42.8509 25.1307 42.7732 24.6477 42.6179 24.2159C42.4664 23.7803 42.2353 23.4337 41.9247 23.1761C41.6141 22.9186 41.2277 22.7898 40.7656 22.7898C40.2921 22.7898 39.8982 22.9186 39.5838 23.1761C39.2732 23.4337 39.0402 23.7803 38.8849 24.2159C38.7334 24.6477 38.6577 25.1307 38.6577 25.6648C38.6577 26.1951 38.7334 26.6761 38.8849 27.108C39.0402 27.5398 39.2732 27.8845 39.5838 28.142C39.8982 28.3958 40.2921 28.5227 40.7656 28.5227ZM48.7386 24.8864V30H46.6818V21.2727H48.6477V22.7557H48.75C48.9508 22.267 49.2708 21.8788 49.7102 21.5909C50.1534 21.303 50.7008 21.1591 51.3523 21.1591C51.9545 21.1591 52.4792 21.2879 52.9261 21.5455C53.3769 21.803 53.7254 22.1761 53.9716 22.6648C54.2216 23.1534 54.3447 23.7462 54.3409 24.4432V30H52.2841V24.7614C52.2841 24.178 52.1326 23.7216 51.8295 23.392C51.5303 23.0625 51.1155 22.8977 50.5852 22.8977C50.2254 22.8977 49.9053 22.9773 49.625 23.1364C49.3485 23.2917 49.1307 23.517 48.9716 23.8125C48.8163 24.108 48.7386 24.4659 48.7386 24.8864ZM60.7898 21.2727V22.8636H55.7727V21.2727H60.7898ZM57.0114 19.1818H59.0682V27.375C59.0682 27.6515 59.1098 27.8636 59.1932 28.0114C59.2803 28.1553 59.3939 28.2538 59.5341 28.3068C59.6742 28.3598 59.8295 28.3864 60 28.3864C60.1288 28.3864 60.2462 28.3769 60.3523 28.358C60.4621 28.339 60.5455 28.322 60.6023 28.3068L60.9489 29.9148C60.839 29.9527 60.6818 29.9943 60.4773 30.0398C60.2765 30.0852 60.0303 30.1117 59.7386 30.1193C59.2235 30.1345 58.7595 30.0568 58.3466 29.8864C57.9337 29.7121 57.6061 29.4432 57.3636 29.0795C57.125 28.7159 57.0076 28.2614 57.0114 27.7159V19.1818ZM62.5099 30V21.2727H64.5668V30H62.5099ZM63.544 20.0341C63.2183 20.0341 62.938 19.9261 62.7031 19.7102C62.4683 19.4905 62.3509 19.2273 62.3509 18.9205C62.3509 18.6098 62.4683 18.3466 62.7031 18.1307C62.938 17.911 63.2183 17.8011 63.544 17.8011C63.8736 17.8011 64.1539 17.911 64.3849 18.1307C64.6198 18.3466 64.7372 18.6098 64.7372 18.9205C64.7372 19.2273 64.6198 19.4905 64.3849 19.7102C64.1539 19.9261 63.8736 20.0341 63.544 20.0341ZM68.7386 24.8864V30H66.6818V21.2727H68.6477V22.7557H68.75C68.9508 22.267 69.2708 21.8788 69.7102 21.5909C70.1534 21.303 70.7008 21.1591 71.3523 21.1591C71.9545 21.1591 72.4792 21.2879 72.9261 21.5455C73.3769 21.803 73.7254 22.1761 73.9716 22.6648C74.2216 23.1534 74.3447 23.7462 74.3409 24.4432V30H72.2841V24.7614C72.2841 24.178 72.1326 23.7216 71.8295 23.392C71.5303 23.0625 71.1155 22.8977 70.5852 22.8977C70.2254 22.8977 69.9053 22.9773 69.625 23.1364C69.3485 23.2917 69.1307 23.517 68.9716 23.8125C68.8163 24.108 68.7386 24.4659 68.7386 24.8864ZM81.9943 26.3295V21.2727H84.0511V30H82.0568V28.4489H81.9659C81.7689 28.9375 81.4451 29.3371 80.9943 29.6477C80.5473 29.9583 79.9962 30.1136 79.3409 30.1136C78.7689 30.1136 78.2633 29.9867 77.8239 29.733C77.3883 29.4754 77.0473 29.1023 76.8011 28.6136C76.5549 28.1212 76.4318 27.5265 76.4318 26.8295V21.2727H78.4886V26.5114C78.4886 27.0644 78.6402 27.5038 78.9432 27.8295C79.2462 28.1553 79.6439 28.3182 80.1364 28.3182C80.4394 28.3182 80.733 28.2443 81.017 28.0966C81.3011 27.9489 81.5341 27.7292 81.7159 27.4375C81.9015 27.142 81.9943 26.7727 81.9943 26.3295ZM88.6776 30.1761C88.1245 30.1761 87.6264 30.0777 87.1832 29.8807C86.7438 29.6799 86.3954 29.3845 86.1378 28.9943C85.884 28.6042 85.7571 28.1231 85.7571 27.5511C85.7571 27.0587 85.848 26.6515 86.0298 26.3295C86.2116 26.0076 86.4598 25.75 86.7741 25.5568C87.0885 25.3636 87.4427 25.2178 87.8366 25.1193C88.2344 25.017 88.6454 24.9432 89.0696 24.8977C89.581 24.8447 89.9957 24.7973 90.3139 24.7557C90.6321 24.7102 90.8632 24.642 91.0071 24.5511C91.1548 24.4564 91.2287 24.3106 91.2287 24.1136V24.0795C91.2287 23.6515 91.1018 23.3201 90.848 23.0852C90.5942 22.8504 90.2287 22.733 89.7514 22.733C89.2476 22.733 88.848 22.8428 88.5526 23.0625C88.2609 23.2822 88.0639 23.5417 87.9616 23.8409L86.0412 23.5682C86.1927 23.0379 86.4427 22.5947 86.7912 22.2386C87.1397 21.8788 87.5658 21.6098 88.0696 21.4318C88.5734 21.25 89.1302 21.1591 89.7401 21.1591C90.1605 21.1591 90.5791 21.2083 90.9957 21.3068C91.4124 21.4053 91.7931 21.5682 92.1378 21.7955C92.4825 22.0189 92.759 22.3239 92.9673 22.7102C93.1795 23.0966 93.2855 23.5795 93.2855 24.1591V30H91.3082V28.8011H91.2401C91.1151 29.0436 90.9389 29.2708 90.7116 29.483C90.4882 29.6913 90.206 29.8598 89.8651 29.9886C89.5279 30.1136 89.1321 30.1761 88.6776 30.1761ZM89.2116 28.6648C89.6245 28.6648 89.9825 28.5833 90.2855 28.4205C90.5885 28.2538 90.8215 28.0341 90.9844 27.7614C91.151 27.4886 91.2344 27.1913 91.2344 26.8693V25.8409C91.17 25.8939 91.0601 25.9432 90.9048 25.9886C90.7533 26.0341 90.5829 26.0739 90.3935 26.108C90.2041 26.142 90.0166 26.1723 89.831 26.1989C89.6454 26.2254 89.4844 26.2481 89.348 26.267C89.0412 26.3087 88.7666 26.3769 88.5241 26.4716C88.2817 26.5663 88.0904 26.6989 87.9503 26.8693C87.8101 27.036 87.7401 27.2519 87.7401 27.517C87.7401 27.8958 87.8783 28.1818 88.1548 28.375C88.4313 28.5682 88.7836 28.6648 89.2116 28.6648ZM95.3537 30V21.2727H97.348V22.7273H97.4389C97.598 22.2235 97.8707 21.8352 98.2571 21.5625C98.6473 21.286 99.0923 21.1477 99.5923 21.1477C99.706 21.1477 99.8329 21.1534 99.973 21.1648C100.117 21.1723 100.236 21.1856 100.331 21.2045V23.0966C100.244 23.0663 100.106 23.0398 99.9162 23.017C99.7306 22.9905 99.5507 22.9773 99.3764 22.9773C99.0014 22.9773 98.6643 23.0587 98.3651 23.2216C98.0696 23.3807 97.8366 23.6023 97.6662 23.8864C97.4957 24.1705 97.4105 24.4981 97.4105 24.8693V30H95.3537ZM109.473 30.1705C108.602 30.1705 107.854 29.9792 107.229 29.5966C106.607 29.214 106.128 28.6856 105.791 28.0114C105.458 27.3333 105.291 26.553 105.291 25.6705C105.291 24.7841 105.462 24.0019 105.803 23.3239C106.143 22.642 106.625 22.1117 107.246 21.733C107.871 21.3504 108.609 21.1591 109.462 21.1591C110.17 21.1591 110.797 21.2898 111.342 21.5511C111.892 21.8087 112.329 22.1742 112.655 22.6477C112.981 23.1174 113.166 23.6667 113.212 24.2955H111.246C111.166 23.875 110.977 23.5246 110.678 23.2443C110.382 22.9602 109.986 22.8182 109.49 22.8182C109.07 22.8182 108.7 22.9318 108.382 23.1591C108.064 23.3826 107.816 23.7045 107.638 24.125C107.464 24.5455 107.376 25.0492 107.376 25.6364C107.376 26.2311 107.464 26.7424 107.638 27.1705C107.812 27.5947 108.056 27.9223 108.371 28.1534C108.689 28.3807 109.062 28.4943 109.49 28.4943C109.793 28.4943 110.064 28.4375 110.303 28.3239C110.545 28.2064 110.748 28.0379 110.911 27.8182C111.073 27.5985 111.185 27.3314 111.246 27.017H113.212C113.162 27.6345 112.981 28.1818 112.666 28.6591C112.352 29.1326 111.924 29.5038 111.382 29.7727C110.84 30.0379 110.204 30.1705 109.473 30.1705ZM118.707 30.1705C117.855 30.1705 117.116 29.983 116.491 29.608C115.866 29.233 115.382 28.7083 115.037 28.0341C114.696 27.3598 114.526 26.572 114.526 25.6705C114.526 24.7689 114.696 23.9792 115.037 23.3011C115.382 22.6231 115.866 22.0966 116.491 21.7216C117.116 21.3466 117.855 21.1591 118.707 21.1591C119.56 21.1591 120.298 21.3466 120.923 21.7216C121.548 22.0966 122.031 22.6231 122.372 23.3011C122.717 23.9792 122.889 24.7689 122.889 25.6705C122.889 26.572 122.717 27.3598 122.372 28.0341C122.031 28.7083 121.548 29.233 120.923 29.608C120.298 29.983 119.56 30.1705 118.707 30.1705ZM118.719 28.5227C119.181 28.5227 119.567 28.3958 119.878 28.142C120.188 27.8845 120.42 27.5398 120.571 27.108C120.726 26.6761 120.804 26.1951 120.804 25.6648C120.804 25.1307 120.726 24.6477 120.571 24.2159C120.42 23.7803 120.188 23.4337 119.878 23.1761C119.567 22.9186 119.181 22.7898 118.719 22.7898C118.245 22.7898 117.851 22.9186 117.537 23.1761C117.226 23.4337 116.993 23.7803 116.838 24.2159C116.687 24.6477 116.611 25.1307 116.611 25.6648C116.611 26.1951 116.687 26.6761 116.838 27.108C116.993 27.5398 117.226 27.8845 117.537 28.142C117.851 28.3958 118.245 28.5227 118.719 28.5227ZM126.692 24.8864V30H124.635V21.2727H126.601V22.7557H126.703C126.904 22.267 127.224 21.8788 127.663 21.5909C128.107 21.303 128.654 21.1591 129.305 21.1591C129.908 21.1591 130.432 21.2879 130.879 21.5455C131.33 21.803 131.679 22.1761 131.925 22.6648C132.175 23.1534 132.298 23.7462 132.294 24.4432V30H130.237V24.7614C130.237 24.178 130.086 23.7216 129.783 23.392C129.483 23.0625 129.069 22.8977 128.538 22.8977C128.179 22.8977 127.858 22.9773 127.578 23.1364C127.302 23.2917 127.084 23.517 126.925 23.8125C126.769 24.108 126.692 24.4659 126.692 24.8864ZM142.217 30.1705C141.342 30.1705 140.587 29.9886 139.95 29.625C139.318 29.2576 138.831 28.7386 138.49 28.0682C138.149 27.3939 137.979 26.6004 137.979 25.6875C137.979 24.7898 138.149 24.0019 138.49 23.3239C138.835 22.642 139.316 22.1117 139.933 21.733C140.551 21.3504 141.276 21.1591 142.109 21.1591C142.647 21.1591 143.155 21.2462 143.632 21.4205C144.113 21.5909 144.537 21.8561 144.905 22.2159C145.276 22.5758 145.568 23.0341 145.78 23.5909C145.992 24.1439 146.098 24.803 146.098 25.5682V26.1989H138.945V24.8125H144.126C144.123 24.4186 144.037 24.0682 143.871 23.7614C143.704 23.4508 143.471 23.2064 143.172 23.0284C142.876 22.8504 142.532 22.7614 142.138 22.7614C141.717 22.7614 141.348 22.8636 141.03 23.0682C140.712 23.2689 140.464 23.5341 140.286 23.8636C140.111 24.1894 140.022 24.5473 140.018 24.9375V26.1477C140.018 26.6553 140.111 27.0909 140.297 27.4545C140.482 27.8144 140.742 28.0909 141.075 28.2841C141.409 28.4735 141.799 28.5682 142.246 28.5682C142.545 28.5682 142.816 28.5265 143.058 28.4432C143.301 28.3561 143.511 28.2292 143.689 28.0625C143.867 27.8958 144.001 27.6894 144.092 27.4432L146.013 27.6591C145.892 28.1667 145.661 28.6098 145.32 28.9886C144.982 29.3636 144.551 29.6553 144.024 29.8636C143.498 30.0682 142.895 30.1705 142.217 30.1705ZM149.895 18.3636V30H147.838V18.3636H149.895ZM155.979 33.2727V21.2727H158.001V22.7159H158.121C158.227 22.5038 158.376 22.2784 158.57 22.0398C158.763 21.7973 159.024 21.5909 159.354 21.4205C159.683 21.2462 160.104 21.1591 160.615 21.1591C161.289 21.1591 161.897 21.3314 162.439 21.6761C162.984 22.017 163.416 22.5227 163.734 23.1932C164.056 23.8598 164.217 24.678 164.217 25.6477C164.217 26.6061 164.06 27.4205 163.746 28.0909C163.431 28.7614 163.003 29.2727 162.462 29.625C161.92 29.9773 161.306 30.1534 160.621 30.1534C160.121 30.1534 159.706 30.0701 159.376 29.9034C159.047 29.7367 158.782 29.536 158.581 29.3011C158.384 29.0625 158.231 28.8371 158.121 28.625H158.036V33.2727H155.979ZM157.996 25.6364C157.996 26.2008 158.075 26.6951 158.234 27.1193C158.397 27.5436 158.63 27.875 158.933 28.1136C159.24 28.3485 159.611 28.4659 160.047 28.4659C160.501 28.4659 160.882 28.3447 161.189 28.1023C161.496 27.8561 161.727 27.5208 161.882 27.0966C162.041 26.6686 162.121 26.1818 162.121 25.6364C162.121 25.0947 162.043 24.6136 161.888 24.1932C161.732 23.7727 161.501 23.4432 161.195 23.2045C160.888 22.9659 160.505 22.8466 160.047 22.8466C159.607 22.8466 159.234 22.9621 158.928 23.1932C158.621 23.4242 158.388 23.7481 158.229 24.1648C158.073 24.5814 157.996 25.072 157.996 25.6364ZM168.49 30.1761C167.937 30.1761 167.439 30.0777 166.996 29.8807C166.556 29.6799 166.208 29.3845 165.95 28.9943C165.696 28.6042 165.57 28.1231 165.57 27.5511C165.57 27.0587 165.661 26.6515 165.842 26.3295C166.024 26.0076 166.272 25.75 166.587 25.5568C166.901 25.3636 167.255 25.2178 167.649 25.1193C168.047 25.017 168.458 24.9432 168.882 24.8977C169.393 24.8447 169.808 24.7973 170.126 24.7557C170.445 24.7102 170.676 24.642 170.82 24.5511C170.967 24.4564 171.041 24.3106 171.041 24.1136V24.0795C171.041 23.6515 170.914 23.3201 170.661 23.0852C170.407 22.8504 170.041 22.733 169.564 22.733C169.06 22.733 168.661 22.8428 168.365 23.0625C168.073 23.2822 167.876 23.5417 167.774 23.8409L165.854 23.5682C166.005 23.0379 166.255 22.5947 166.604 22.2386C166.952 21.8788 167.378 21.6098 167.882 21.4318C168.386 21.25 168.943 21.1591 169.553 21.1591C169.973 21.1591 170.392 21.2083 170.808 21.3068C171.225 21.4053 171.606 21.5682 171.95 21.7955C172.295 22.0189 172.571 22.3239 172.78 22.7102C172.992 23.0966 173.098 23.5795 173.098 24.1591V30H171.121V28.8011H171.053C170.928 29.0436 170.751 29.2708 170.524 29.483C170.301 29.6913 170.018 29.8598 169.678 29.9886C169.34 30.1136 168.945 30.1761 168.49 30.1761ZM169.024 28.6648C169.437 28.6648 169.795 28.5833 170.098 28.4205C170.401 28.2538 170.634 28.0341 170.797 27.7614C170.964 27.4886 171.047 27.1913 171.047 26.8693V25.8409C170.982 25.8939 170.873 25.9432 170.717 25.9886C170.566 26.0341 170.395 26.0739 170.206 26.108C170.017 26.142 169.829 26.1723 169.643 26.1989C169.458 26.2254 169.297 26.2481 169.161 26.267C168.854 26.3087 168.579 26.3769 168.337 26.4716C168.094 26.5663 167.903 26.6989 167.763 26.8693C167.623 27.036 167.553 27.2519 167.553 27.517C167.553 27.8958 167.691 28.1818 167.967 28.375C168.244 28.5682 168.596 28.6648 169.024 28.6648ZM178.962 33.4545C178.223 33.4545 177.589 33.3542 177.058 33.1534C176.528 32.9564 176.102 32.6913 175.78 32.358C175.458 32.0246 175.234 31.6553 175.109 31.25L176.962 30.8011C177.045 30.9716 177.166 31.1402 177.325 31.3068C177.484 31.4773 177.698 31.6174 177.967 31.7273C178.24 31.8409 178.583 31.8977 178.996 31.8977C179.579 31.8977 180.062 31.7557 180.445 31.4716C180.827 31.1913 181.018 30.7292 181.018 30.0852V28.4318H180.916C180.81 28.6439 180.655 28.8617 180.45 29.0852C180.25 29.3087 179.982 29.4962 179.649 29.6477C179.32 29.7992 178.905 29.875 178.405 29.875C177.734 29.875 177.126 29.7178 176.581 29.4034C176.039 29.0852 175.607 28.6117 175.286 27.983C174.967 27.3504 174.808 26.5587 174.808 25.608C174.808 24.6496 174.967 23.8409 175.286 23.1818C175.607 22.5189 176.041 22.017 176.587 21.6761C177.132 21.3314 177.74 21.1591 178.411 21.1591C178.922 21.1591 179.342 21.2462 179.672 21.4205C180.005 21.5909 180.27 21.7973 180.467 22.0398C180.664 22.2784 180.814 22.5038 180.916 22.7159H181.03V21.2727H183.058V30.142C183.058 30.8883 182.88 31.5057 182.524 31.9943C182.168 32.483 181.681 32.8485 181.064 33.0909C180.446 33.3333 179.746 33.4545 178.962 33.4545ZM178.979 28.2614C179.414 28.2614 179.786 28.1553 180.092 27.9432C180.399 27.7311 180.632 27.4261 180.791 27.0284C180.95 26.6307 181.03 26.1534 181.03 25.5966C181.03 25.0473 180.95 24.5663 180.791 24.1534C180.636 23.7405 180.405 23.4205 180.098 23.1932C179.795 22.9621 179.422 22.8466 178.979 22.8466C178.52 22.8466 178.138 22.9659 177.831 23.2045C177.524 23.4432 177.293 23.7708 177.138 24.1875C176.982 24.6004 176.905 25.0701 176.905 25.5966C176.905 26.1307 176.982 26.5985 177.138 27C177.297 27.3977 177.53 27.7083 177.837 27.9318C178.147 28.1515 178.528 28.2614 178.979 28.2614ZM188.973 30.1705C188.121 30.1705 187.382 29.983 186.757 29.608C186.132 29.233 185.647 28.7083 185.303 28.0341C184.962 27.3598 184.791 26.572 184.791 25.6705C184.791 24.7689 184.962 23.9792 185.303 23.3011C185.647 22.6231 186.132 22.0966 186.757 21.7216C187.382 21.3466 188.121 21.1591 188.973 21.1591C189.825 21.1591 190.564 21.3466 191.189 21.7216C191.814 22.0966 192.297 22.6231 192.638 23.3011C192.982 23.9792 193.155 24.7689 193.155 25.6705C193.155 26.572 192.982 27.3598 192.638 28.0341C192.297 28.7083 191.814 29.233 191.189 29.608C190.564 29.983 189.825 30.1705 188.973 30.1705ZM188.984 28.5227C189.446 28.5227 189.833 28.3958 190.143 28.142C190.454 27.8845 190.685 27.5398 190.837 27.108C190.992 26.6761 191.07 26.1951 191.07 25.6648C191.07 25.1307 190.992 24.6477 190.837 24.2159C190.685 23.7803 190.454 23.4337 190.143 23.1761C189.833 22.9186 189.446 22.7898 188.984 22.7898C188.511 22.7898 188.117 22.9186 187.803 23.1761C187.492 23.4337 187.259 23.7803 187.104 24.2159C186.952 24.6477 186.876 25.1307 186.876 25.6648C186.876 26.1951 186.952 26.6761 187.104 27.108C187.259 27.5398 187.492 27.8845 187.803 28.142C188.117 28.3958 188.511 28.5227 188.984 28.5227Z" fill="white"/>
<path d="M307 24H323M323 24L317 18M323 24L317 30" stroke="white"/>
</svg>
