<svg width="66" height="49" viewBox="0 0 66 49" fill="none" xmlns="http://www.w3.org/2000/svg">
<g filter="url(#filter0_dd_625_1237)">
<rect x="9.45715" y="5.20215" width="46.6143" height="30.0304" rx="5.37857" fill="white"/>
<rect x="9.3451" y="5.09009" width="46.8384" height="30.2545" rx="5.49062" stroke="#D6DCE5" stroke-width="0.224107"/>
<path d="M31.751 23.8165H30.7026V15.6582H33.482C34.1865 15.6582 34.7871 15.893 35.2786 16.3626C35.781 16.8322 36.0322 17.4056 36.0322 18.0827C36.0322 18.7762 35.781 19.3496 35.2786 19.8138C34.7926 20.2779 34.1919 20.5073 33.482 20.5073H31.751V23.8165ZM31.751 16.663V19.508H33.5039C33.9189 19.508 34.2684 19.366 34.5414 19.0875C34.8199 18.809 34.9619 18.4704 34.9619 18.0882C34.9619 17.7114 34.8199 17.3783 34.5414 17.0998C34.2684 16.8104 33.9244 16.6684 33.5039 16.6684H31.751V16.663Z" fill="#3C4043"/>
<path d="M38.7733 18.05C39.5487 18.05 40.1603 18.2575 40.6081 18.6725C41.0559 19.0875 41.2797 19.6554 41.2797 20.3762V23.8164H40.2804V23.041H40.2368C39.8054 23.6799 39.2265 23.9967 38.5057 23.9967C37.8887 23.9967 37.3754 23.8164 36.9604 23.4506C36.5454 23.0847 36.3379 22.6315 36.3379 22.0854C36.3379 21.5066 36.5563 21.0479 36.9931 20.7093C37.43 20.3653 38.0143 20.196 38.7405 20.196C39.3631 20.196 39.8764 20.3107 40.275 20.54V20.2998C40.275 19.9339 40.133 19.6281 39.8436 19.3715C39.5542 19.1148 39.2156 18.9892 38.8279 18.9892C38.2436 18.9892 37.7795 19.2349 37.4409 19.7319L36.5181 19.153C37.0259 18.4158 37.7795 18.05 38.7733 18.05ZM37.4191 22.1018C37.4191 22.3748 37.5337 22.6042 37.7685 22.7844C37.9979 22.9646 38.2709 23.0574 38.5822 23.0574C39.0245 23.0574 39.4177 22.8936 39.7617 22.566C40.1057 22.2383 40.2804 21.8561 40.2804 21.4138C39.9528 21.1571 39.4996 21.026 38.9153 21.026C38.4894 21.026 38.1344 21.1298 37.8505 21.3318C37.561 21.5448 37.4191 21.8015 37.4191 22.1018Z" fill="#3C4043"/>
<path d="M46.9807 18.2302L43.4859 26.2683H42.4047L43.7043 23.4561L41.3999 18.2302H42.5412L44.2012 22.2384H44.2231L45.8394 18.2302H46.9807Z" fill="#3C4043"/>
<path d="M27.5807 19.8465C27.5807 19.5047 27.5501 19.1776 27.4933 18.8631H23.0986V20.6651L25.6296 20.6656C25.5269 21.2652 25.1965 21.7763 24.6903 22.1171V23.2862H26.1969C27.0766 22.472 27.5807 21.2685 27.5807 19.8465Z" fill="#4285F4"/>
<path d="M24.6909 22.1171C24.2715 22.4 23.7314 22.5655 23.0996 22.5655C21.8792 22.5655 20.8438 21.7431 20.4731 20.6346H18.919V21.8403C19.6889 23.3682 21.2714 24.4166 23.0996 24.4166C24.3632 24.4166 25.4248 24.0011 26.1975 23.2857L24.6909 22.1171Z" fill="#34A853"/>
<path d="M20.3267 19.74C20.3267 19.4288 20.3785 19.1279 20.473 18.845V17.6393H18.9189C18.6006 18.2711 18.4214 18.9843 18.4214 19.74C18.4214 20.4958 18.6011 21.209 18.9189 21.8408L20.473 20.6351C20.3785 20.3522 20.3267 20.0513 20.3267 19.74Z" fill="#FABB05"/>
<path d="M23.0996 16.9142C23.7893 16.9142 24.4069 17.1517 24.8945 17.6159L26.2297 16.2818C25.4188 15.5266 24.3616 15.063 23.0996 15.063C21.272 15.063 19.6889 16.1114 18.9189 17.6393L20.473 18.845C20.8438 17.7365 21.8792 16.9142 23.0996 16.9142Z" fill="#E94235"/>
</g>
<defs>
<filter id="filter0_dd_625_1237" x="0.268746" y="0.495884" width="64.9911" height="48.4071" filterUnits="userSpaceOnUse" color-interpolation-filters="sRGB">
<feFlood flood-opacity="0" result="BackgroundImageFix"/>
<feColorMatrix in="SourceAlpha" type="matrix" values="0 0 0 0 0 0 0 0 0 0 0 0 0 0 0 0 0 0 127 0" result="hardAlpha"/>
<feOffset dy="0.448214"/>
<feGaussianBlur stdDeviation="2.24107"/>
<feColorMatrix type="matrix" values="0 0 0 0 0.717647 0 0 0 0 0.717647 0 0 0 0 0.717647 0 0 0 0.08 0"/>
<feBlend mode="normal" in2="BackgroundImageFix" result="effect1_dropShadow_625_1237"/>
<feColorMatrix in="SourceAlpha" type="matrix" values="0 0 0 0 0 0 0 0 0 0 0 0 0 0 0 0 0 0 127 0" result="hardAlpha"/>
<feOffset dy="4.48214"/>
<feGaussianBlur stdDeviation="4.48214"/>
<feColorMatrix type="matrix" values="0 0 0 0 0.717647 0 0 0 0 0.717647 0 0 0 0 0.717647 0 0 0 0.08 0"/>
<feBlend mode="normal" in2="effect1_dropShadow_625_1237" result="effect2_dropShadow_625_1237"/>
<feBlend mode="normal" in="SourceGraphic" in2="effect2_dropShadow_625_1237" result="shape"/>
</filter>
</defs>
</svg>
