<svg width="66" height="49" viewBox="0 0 66 49" fill="none" xmlns="http://www.w3.org/2000/svg">
<g filter="url(#filter0_dd_625_1231)">
<rect x="9.61426" y="5.20215" width="46.6143" height="30.0304" rx="5.37857" fill="white"/>
<rect x="9.5022" y="5.09009" width="46.8384" height="30.2545" rx="5.49062" stroke="#D6DCE5" stroke-width="0.224107"/>
<path d="M36.2698 14.0505H29.4066V26.384H36.2698V14.0505Z" fill="#FF5F00"/>
<path d="M29.8424 20.2173C29.8413 19.0295 30.1105 17.857 30.6295 16.7886C31.1485 15.7202 31.9038 14.7839 32.8382 14.0505C31.6811 13.141 30.2915 12.5754 28.8281 12.4183C27.3647 12.2613 25.8867 12.5191 24.5629 13.1623C23.2391 13.8056 22.123 14.8083 21.3422 16.0559C20.5614 17.3034 20.1473 18.7455 20.1473 20.2173C20.1473 21.6891 20.5614 23.1312 21.3422 24.3787C22.123 25.6263 23.2391 26.629 24.5629 27.2722C25.8867 27.9155 27.3647 28.1733 28.8281 28.0162C30.2915 27.8592 31.6811 27.2936 32.8382 26.384C31.9039 25.6507 31.1486 24.7144 30.6295 23.646C30.1105 22.5776 29.8413 21.4051 29.8424 20.2173Z" fill="#EB001B"/>
<path d="M45.5288 20.2173C45.5289 21.689 45.1148 23.1311 44.334 24.3787C43.5532 25.6263 42.4372 26.629 41.1134 27.2722C39.7897 27.9155 38.3117 28.1733 36.8483 28.0162C35.385 27.8592 33.9953 27.2936 32.8382 26.384C33.7718 25.65 34.5265 24.7135 35.0455 23.6453C35.5644 22.577 35.8341 21.4049 35.8341 20.2173C35.8341 19.0297 35.5644 17.8575 35.0455 16.7893C34.5265 15.7211 33.7718 14.7846 32.8382 14.0505C33.9953 13.141 35.385 12.5754 36.8483 12.4183C38.3117 12.2613 39.7897 12.5191 41.1134 13.1623C42.4372 13.8056 43.5532 14.8083 44.334 16.0559C45.1148 17.3034 45.5289 18.7455 45.5288 20.2173Z" fill="#F79E1B"/>
<path d="M44.7805 25.0777V24.8252H44.8823V24.7738H44.623V24.8252H44.7249V25.0777H44.7805ZM45.2839 25.0777V24.7733H45.2044L45.113 24.9827L45.0215 24.7733H44.942V25.0777H44.9981V24.8481L45.0839 25.0461H45.1421L45.2278 24.8476V25.0777H45.2839Z" fill="#F79E1B"/>
</g>
<defs>
<filter id="filter0_dd_625_1231" x="0.425851" y="0.495884" width="64.9911" height="48.4071" filterUnits="userSpaceOnUse" color-interpolation-filters="sRGB">
<feFlood flood-opacity="0" result="BackgroundImageFix"/>
<feColorMatrix in="SourceAlpha" type="matrix" values="0 0 0 0 0 0 0 0 0 0 0 0 0 0 0 0 0 0 127 0" result="hardAlpha"/>
<feOffset dy="0.448214"/>
<feGaussianBlur stdDeviation="2.24107"/>
<feColorMatrix type="matrix" values="0 0 0 0 0.717647 0 0 0 0 0.717647 0 0 0 0 0.717647 0 0 0 0.08 0"/>
<feBlend mode="normal" in2="BackgroundImageFix" result="effect1_dropShadow_625_1231"/>
<feColorMatrix in="SourceAlpha" type="matrix" values="0 0 0 0 0 0 0 0 0 0 0 0 0 0 0 0 0 0 127 0" result="hardAlpha"/>
<feOffset dy="4.48214"/>
<feGaussianBlur stdDeviation="4.48214"/>
<feColorMatrix type="matrix" values="0 0 0 0 0.717647 0 0 0 0 0.717647 0 0 0 0 0.717647 0 0 0 0.08 0"/>
<feBlend mode="normal" in2="effect1_dropShadow_625_1231" result="effect2_dropShadow_625_1231"/>
<feBlend mode="normal" in="SourceGraphic" in2="effect2_dropShadow_625_1231" result="shape"/>
</filter>
</defs>
</svg>
