<svg width="66" height="49" viewBox="0 0 66 49" fill="none" xmlns="http://www.w3.org/2000/svg">
<g filter="url(#filter0_dd_625_1233)">
<rect x="9.22858" y="5.20215" width="46.6143" height="30.0304" rx="5.37857" fill="white"/>
<rect x="9.11652" y="5.09009" width="46.8384" height="30.2545" rx="5.49062" stroke="#D6DCE5" stroke-width="0.224107"/>
<path fill-rule="evenodd" clip-rule="evenodd" d="M19.4258 15.8481H16.7383C16.5543 15.8481 16.3979 15.9818 16.3693 16.1633L15.2823 23.054C15.2607 23.19 15.366 23.3126 15.5039 23.3126H16.787C16.9709 23.3126 17.1273 23.1789 17.156 22.9971L17.4491 21.1386C17.4774 20.9566 17.6342 20.8231 17.8177 20.8231H18.6685C20.4389 20.8231 21.4605 19.9665 21.7275 18.2691C21.8477 17.5265 21.7326 16.943 21.3847 16.5342C21.0028 16.0856 20.3252 15.8481 19.4258 15.8481ZM19.7358 18.3649C19.5889 19.3292 18.852 19.3292 18.1396 19.3292H17.734L18.0185 17.5283C18.0354 17.4195 18.1298 17.3394 18.2398 17.3394H18.4257C18.911 17.3394 19.3688 17.3394 19.6054 17.6159C19.7464 17.781 19.7896 18.0261 19.7358 18.3649ZM27.4593 18.334H26.1724C26.0627 18.334 25.9679 18.4142 25.951 18.5231L25.8941 18.8829L25.8041 18.7526C25.5255 18.3482 24.9043 18.2131 24.2842 18.2131C22.8619 18.2131 21.6473 19.2901 21.4107 20.8009C21.2878 21.5544 21.4625 22.275 21.8901 22.7776C22.2823 23.2396 22.8435 23.4322 23.5111 23.4322C24.657 23.4322 25.2925 22.6954 25.2925 22.6954L25.2351 23.0531C25.2134 23.1898 25.3187 23.3124 25.4558 23.3124H26.6152C26.7996 23.3124 26.9551 23.1787 26.9841 22.9969L27.6797 18.5925C27.7017 18.4571 27.5968 18.334 27.4593 18.334ZM25.6653 20.8385C25.5411 21.5737 24.9576 22.0672 24.2134 22.0672C23.8397 22.0672 23.5409 21.9474 23.3493 21.7203C23.159 21.4948 23.0867 21.1737 23.1472 20.8162C23.2632 20.0872 23.8566 19.5777 24.5895 19.5777C24.9548 19.5777 25.252 19.699 25.4477 19.9281C25.6437 20.1596 25.7215 20.4825 25.6653 20.8385ZM33.0202 18.3338H34.3136C34.4947 18.3338 34.6004 18.5369 34.4974 18.6855L30.1961 24.8936C30.1264 24.9942 30.0117 25.054 29.8891 25.054H28.5974C28.4155 25.054 28.3093 24.8492 28.4146 24.7003L29.754 22.81L28.3295 18.63C28.2802 18.4847 28.3875 18.3338 28.5421 18.3338H29.8129C29.978 18.3338 30.1237 18.4422 30.1713 18.6002L30.9273 21.1248L32.7111 18.4976C32.7809 18.3951 32.897 18.3338 33.0202 18.3338Z" fill="#253B80"/>
<path fill-rule="evenodd" clip-rule="evenodd" d="M47.0428 23.0534L48.1458 16.0366C48.1627 15.9277 48.257 15.8475 48.3667 15.8472H49.6084C49.7455 15.8472 49.8508 15.9701 49.8292 16.1061L48.7415 22.9965C48.7131 23.1783 48.5567 23.312 48.3725 23.312H47.2636C47.1265 23.312 47.0212 23.1894 47.0428 23.0534ZM38.5959 15.8475H35.9079C35.7244 15.8475 35.568 15.9812 35.5393 16.1626L34.4523 23.0534C34.4307 23.1894 34.536 23.312 34.6733 23.312H36.0525C36.1807 23.312 36.2903 23.2185 36.3103 23.0912L36.6188 21.138C36.6471 20.9559 36.8039 20.8225 36.9874 20.8225H37.8377C39.6084 20.8225 40.6299 19.9659 40.8971 18.2685C41.0176 17.5258 40.9018 16.9423 40.5541 16.5336C40.1724 16.085 39.4953 15.8475 38.5959 15.8475ZM38.9059 18.3643C38.7594 19.3285 38.0225 19.3285 37.3096 19.3285H36.9044L37.1894 17.5277C37.2063 17.4189 37.2998 17.3387 37.4102 17.3387H37.596C38.081 17.3387 38.5393 17.3387 38.7757 17.6153C38.9168 17.7804 38.9598 18.0255 38.9059 18.3643ZM46.6287 18.3334H45.3427C45.2321 18.3334 45.1382 18.4136 45.1217 18.5225L45.0648 18.8823L44.9744 18.7519C44.6958 18.3476 44.0749 18.2124 43.4548 18.2124C42.0325 18.2124 40.8183 19.2894 40.5817 20.8003C40.4591 21.5538 40.6332 22.2744 41.0607 22.777C41.4537 23.239 42.0142 23.4316 42.6818 23.4316C43.8276 23.4316 44.463 22.6948 44.463 22.6948L44.4057 23.0525C44.3841 23.1892 44.4894 23.3118 44.6274 23.3118H45.7862C45.9697 23.3118 46.1261 23.1781 46.1548 22.9963L46.8508 18.5919C46.872 18.4565 46.7668 18.3334 46.6287 18.3334ZM44.8349 20.8379C44.7114 21.5731 44.1271 22.0666 43.3828 22.0666C43.0098 22.0666 42.7105 21.9468 42.5186 21.7196C42.3284 21.4942 42.257 21.1731 42.3168 20.8156C42.4333 20.0866 43.026 19.5771 43.7589 19.5771C44.1244 19.5771 44.4214 19.6984 44.6172 19.9275C44.814 20.159 44.8918 20.4819 44.8349 20.8379Z" fill="#179BD7"/>
</g>
<defs>
<filter id="filter0_dd_625_1233" x="0.0401697" y="0.495884" width="64.9911" height="48.4071" filterUnits="userSpaceOnUse" color-interpolation-filters="sRGB">
<feFlood flood-opacity="0" result="BackgroundImageFix"/>
<feColorMatrix in="SourceAlpha" type="matrix" values="0 0 0 0 0 0 0 0 0 0 0 0 0 0 0 0 0 0 127 0" result="hardAlpha"/>
<feOffset dy="0.448214"/>
<feGaussianBlur stdDeviation="2.24107"/>
<feColorMatrix type="matrix" values="0 0 0 0 0.717647 0 0 0 0 0.717647 0 0 0 0 0.717647 0 0 0 0.08 0"/>
<feBlend mode="normal" in2="BackgroundImageFix" result="effect1_dropShadow_625_1233"/>
<feColorMatrix in="SourceAlpha" type="matrix" values="0 0 0 0 0 0 0 0 0 0 0 0 0 0 0 0 0 0 127 0" result="hardAlpha"/>
<feOffset dy="4.48214"/>
<feGaussianBlur stdDeviation="4.48214"/>
<feColorMatrix type="matrix" values="0 0 0 0 0.717647 0 0 0 0 0.717647 0 0 0 0 0.717647 0 0 0 0.08 0"/>
<feBlend mode="normal" in2="effect1_dropShadow_625_1233" result="effect2_dropShadow_625_1233"/>
<feBlend mode="normal" in="SourceGraphic" in2="effect2_dropShadow_625_1233" result="shape"/>
</filter>
</defs>
</svg>
