<svg width="66" height="49" viewBox="0 0 66 49" fill="none" xmlns="http://www.w3.org/2000/svg">
<g filter="url(#filter0_dd_625_1229)">
<rect x="10" y="5.20215" width="46.6143" height="30.0304" rx="5.37857" fill="white"/>
<rect x="9.88795" y="5.09009" width="46.8384" height="30.2545" rx="5.49062" stroke="#D6DCE5" stroke-width="0.224107"/>
<path d="M33.0222 15.3231L30.8479 25.4867H28.2188L30.3934 15.3231H33.0222ZM44.0839 21.8858L45.4681 18.069L46.2645 21.8858H44.0839ZM47.0173 25.4867H49.4492L47.3271 15.3231H45.0824C44.578 15.3231 44.1524 15.6165 43.9629 16.0688L40.0184 25.4867H42.7794L43.3276 23.969H46.7007L47.0173 25.4867ZM40.1555 22.1682C40.1667 19.4857 36.4458 19.3381 36.4716 18.1398C36.4793 17.7747 36.827 17.3874 37.5865 17.288C37.9639 17.2388 39.0013 17.2011 40.1793 17.7432L40.6406 15.5879C40.0078 15.3582 39.1937 15.1372 38.181 15.1372C35.5825 15.1372 33.7534 16.5188 33.7379 18.4972C33.7215 19.9602 35.0436 20.7766 36.0399 21.263C37.0641 21.7613 37.4083 22.0804 37.4038 22.5259C37.3971 23.2082 36.5867 23.5087 35.8308 23.5206C34.5087 23.5415 33.7415 23.1638 33.1299 22.8788L32.6535 25.1058C33.2676 25.3879 34.4016 25.6331 35.5779 25.6456C38.3396 25.6456 40.1465 24.281 40.1555 22.1682ZM29.2653 15.3231L25.0056 25.4867H22.2259L20.1298 17.3755C20.0024 16.8759 19.8918 16.6932 19.5048 16.4825C18.8733 16.1399 17.8295 15.8179 16.9111 15.6184L16.9738 15.3231H21.4474C22.0174 15.3231 22.5305 15.7027 22.6598 16.3593L23.7671 22.2409L26.503 15.3231H29.2653Z" fill="#1434CB"/>
</g>
<defs>
<filter id="filter0_dd_625_1229" x="0.811593" y="0.495884" width="64.9911" height="48.4071" filterUnits="userSpaceOnUse" color-interpolation-filters="sRGB">
<feFlood flood-opacity="0" result="BackgroundImageFix"/>
<feColorMatrix in="SourceAlpha" type="matrix" values="0 0 0 0 0 0 0 0 0 0 0 0 0 0 0 0 0 0 127 0" result="hardAlpha"/>
<feOffset dy="0.448214"/>
<feGaussianBlur stdDeviation="2.24107"/>
<feColorMatrix type="matrix" values="0 0 0 0 0.717647 0 0 0 0 0.717647 0 0 0 0 0.717647 0 0 0 0.08 0"/>
<feBlend mode="normal" in2="BackgroundImageFix" result="effect1_dropShadow_625_1229"/>
<feColorMatrix in="SourceAlpha" type="matrix" values="0 0 0 0 0 0 0 0 0 0 0 0 0 0 0 0 0 0 127 0" result="hardAlpha"/>
<feOffset dy="4.48214"/>
<feGaussianBlur stdDeviation="4.48214"/>
<feColorMatrix type="matrix" values="0 0 0 0 0.717647 0 0 0 0 0.717647 0 0 0 0 0.717647 0 0 0 0.08 0"/>
<feBlend mode="normal" in2="effect1_dropShadow_625_1229" result="effect2_dropShadow_625_1229"/>
<feBlend mode="normal" in="SourceGraphic" in2="effect2_dropShadow_625_1229" result="shape"/>
</filter>
</defs>
</svg>
